DBRep_DrawableShape

CASCADE Topology V1, (c) Matra-Datavision
Locations 9
1
              1               0               0              -0 
              0               1               0              -0 
              0               0               1              -0 
1
              1               0               0               0 
              0               1               0               0 
              0               0               1             0.1 
2  1 1 2 1 0
1
              1               0               0               0 
              0               1               0               0 
              0               0               1              10 
1
              1               0               0              -0 
              0               1               0              -0 
              0               0               1              -0 
2  4 -1 5 -1 0
2  5 -1 0
2  2 -1 1 -1 0
2  1 -1 0
Curve2ds 4
1 1 0.050000000000000711 0 -1 
1 0 0.050000000000000711 1 0 
1 0 0 0 1 
1 1 0 -1 0 
Curves 8
1 1 0.050000000000000711 0 0 0 1 
1 1 0 0 0 0 1 
1 1 0.050000000000000711 0 0 -1 0 
1 0 0.050000000000000711 0 0 0 1 
1 0 0.050000000000000711 0 1 0 0 
1 0 0 0 0 0 1 
1 0 0 0 0 1 0 
1 1 0 0 -1 0 0 
Polygon3D 0
PolygonOnTriangulations 28
2 1 2 
p 0.00040000008 1 0 0.1 
2 3 4 
p 0.00040000008 1 0 0.1 
2 3 4 
p 0.00040000008 1 0 0.1 
2 1 2 
p 0.00040000008 1 0 0.1 
2 2 4 
p 0.00400000008 1 0 0.0500000000000007 
2 1 3 
p 0.00400000008 1 0 0.0500000000000007 
2 2 4 
p 0.00040000008 1 0 0.0500000000000007 
2 1 3 
p 0.00040000008 1 0 0.0500000000000007 
2 1 2 
p 0.00040000008 1 0 0.0500000000000007 
2 1 2 
p 0.00040000008 1 0 0.1 
2 3 4 
p 0.00040000008 1 0 0.1 
2 1 3 
p 0.00400000008 1 0 1 
2 2 4 
p 0.00400000008 1 0 1 
2 2 4 
p 0.00040000008 1 0 1 
2 1 3 
p 0.00040000008 1 0 1 
2 3 1 
p 0.00040000008 1 0 1 
2 1 2 
p 0.00040000008 1 0 0.1 
2 3 4 
p 0.00040000008 1 0 0.1 
2 1 3 
p 0.00400000008 1 0 0.0500000000000007 
2 2 4 
p 0.00400000008 1 0 0.0500000000000007 
2 2 4 
p 0.00040000008 1 0 0.0500000000000007 
2 1 3 
p 0.00040000008 1 0 0.0500000000000007 
2 4 3 
p 0.00040000008 1 0 0.0500000000000007 
2 1 3 
p 0.00400000008 1 0 1 
2 2 4 
p 0.00400000008 1 0 1 
2 2 4 
p 0.00040000008 1 0 1 
2 1 3 
p 0.00040000008 1 0 1 
2 2 4 
p 0.00040000008 1 0 1 
Surfaces 5
1 1 0.050000000000000711 0 1 0 -0 0 -1 0 0 -0 -1 
1 0 0 0 0 0 1 1 0 -0 -0 1 0 
1 0 0.050000000000000711 0 0 1 0 1 0 0 0 0 -1 
1 0 0 0 -1 0 0 0 1 0 0 0 -1 
1 1 0 0 0 -1 0 -1 0 0 -0 -0 -1 
Triangulations 9
4 2 1 0
1 0.0500000000000007 0 1 0.0500000000000007 0.1 1 0 0 1 0 0.1 0 0 0 -0.1 0.0500000000000007 0 0.0500000000000007 -0.1 3 1 2 3 2 4 
4 2 1 0
0 0.0500000000000007 0 0 0.0500000000000007 0.1 1 0.0500000000000007 0 1 0.0500000000000007 0.1 0 0 0 -0.1 1 0 1 -0.1 3 1 2 3 2 4 
4 2 1 0
1 0 0 1 0 0.1 0 0 0 0 0 0.1 0 0 0 -0.1 1 0 1 -0.1 3 1 2 3 2 4 
4 2 1 0
1 0.0500000000000007 0 1 0.0500000000000007 10 1 0 0 1 0 10 0 0 0 -10 0.0500000000000007 0 0.0500000000000007 -10 1 2 4 3 1 4 
4 2 1 0
1 0.0500000000000007 0 1 0 0 0 0.0500000000000007 0 0 0 0 1 0.0500000000000007 1 0 0 0.0500000000000007 0 0 1 3 4 1 4 2 
4 2 1 0
0 0 0 0 0 0.1 0 0.0500000000000007 0 0 0.0500000000000007 0.1 0 0 0 -0.1 0.0500000000000007 0 0.0500000000000007 -0.1 3 1 2 3 2 4 
4 2 1 0
0 0.0500000000000007 0 0 0.0500000000000007 10 1 0.0500000000000007 0 1 0.0500000000000007 10 0 0 0 -10 1 0 1 -10 3 1 2 3 2 4 
4 2 1 0
0 0 0 0 0 10 0 0.0500000000000007 0 0 0.0500000000000007 10 0 0 0 -10 0.0500000000000007 0 0.0500000000000007 -10 1 2 4 3 1 4 
4 2 1 0
1 0 0 1 0 10 0 0 0 0 0 10 0 0 0 -10 1 0 1 -10 3 1 2 3 2 4 

TShapes 25
Ve
1e-07
1 0.0500000000000007 0
0 0

0101101
*
Ed
 1e-07 1 1 0
1  1 0 0 0.1
6  1 1 0
6  2 2 0
0

0101000
+25 1 -25 3 *
Ve
1e-07
1 0 0
0 0

0101101
*
Ed
 1e-07 1 1 0
1  2 0 0 0.1
6  3 1 0
6  4 3 0
0

0101000
+23 1 -23 3 *
Ed
 1e-07 1 1 0
1  3 0 0 0.0500000000000007
2  1 2 0 0 0.0500000000000007
6  5 4 6
6  6 4 7
6  7 1 8
6  8 1 9
6  9 5 0
0

0101000
+25 0 -23 0 *
Wi

0101100
+24 0 -22 0 -21 1 +21 3 *
Fa
0  1e-07 1 0
2  1
0101000
+20 0 *
Ve
1e-07
0 0.0500000000000007 0
0 0

0101101
*
Ed
 1e-07 1 1 0
1  4 0 0 0.1
6  10 2 0
6  11 6 0
0

0101000
+18 1 -18 3 *
Ed
 1e-07 1 1 0
1  5 0 0 1
2  2 2 0 0 1
6  12 7 7
6  13 7 6
6  14 2 8
6  15 2 9
6  16 5 0
0

0101000
+18 0 -25 0 *
Wi

0101100
+17 0 -24 0 -16 1 +16 3 *
Fa
0  1e-07 3 0
2  2
0101000
+15 0 *
Ve
1e-07
0 0 0
0 0

0101101
*
Ed
 1e-07 1 1 0
1  6 0 0 0.1
6  17 6 0
6  18 3 0
0

0101000
+13 1 -13 3 *
Ed
 1e-07 1 1 0
1  7 0 0 0.0500000000000007
2  3 2 0 0 0.0500000000000007
6  19 8 7
6  20 8 6
6  21 6 8
6  22 6 9
6  23 5 0
0

0101000
+13 0 -18 0 *
Wi

0101100
+12 0 -17 0 -11 1 +11 3 *
Fa
0  1e-07 4 0
2  6
0101000
+10 0 *
Ed
 1e-07 1 1 0
1  8 0 0 1
2  4 2 0 0 1
6  24 9 7
6  25 9 6
6  26 3 8
6  27 3 9
6  28 5 0
0

0101000
+23 0 -13 0 *
Wi

0101100
+22 0 -12 0 -8 1 +8 3 *
Fa
0  1e-07 5 0
2  3
0101000
+7 0 *
Wi

0101100
-21 0 -16 0 -11 0 -8 0 *
Fa
0  1e-07 2 0
2  5
0101000
+5 0 *
Sh

0101100
-19 0 -14 0 -9 0 -6 0 +4 1 -4 3 *
So

0100000
-3 0 *
Co

1100000
+2 0 *

+1 0 